# xmcd
# Track frame offsets:
# 150
# 17239
# 29021
# 46846
# 62668
# 80224
# 102805
# 118856
# 140687
# 161909
# 179687
# 195491
#
# Disc length: 3256 seconds
# Revision: 0
# Processed by: cddbd v1.5.2PL0 Copyright (c) Steve Scherf et al.
# Submitted via: VisiTrax 2.11.1.266 - For more info visit www.synapsa.com
#
DISCID=af0cb60c
DTITLE=Various Artist - My Sister's Shoes
DYEAR=2008
DGENRE=
TTITLE0=You've Been Telling Me Lies
TTITLE1=Stay Happy Harry
TTITLE2=My Sister's Shoes
TTITLE3=New Shoes
TTITLE4=Every Blues Singer
TTITLE5=Where Did I Go Wrong?
TTITLE6=Your Barndoors Open
TTITLE7=Broke, Down And Blue
TTITLE8=Analysis Paralysis
TTITLE9=One Lie Leads To Another
TTITLE10=Two Feet On The Ground
TTITLE11=Blues For Lesley
EXTD=
EXTT0=
EXTT1=
EXTT2=
EXTT3=
EXTT4=
EXTT5=
EXTT6=
EXTT7=
EXTT8=
EXTT9=
EXTT10=
EXTT11=
PLAYORDER=
